<?xml version="1.0" standalone="no"?>
<!DOCTYPE svg PUBLIC "-//W3C//DTD SVG 20010904//EN"
 "http://www.w3.org/TR/2001/REC-SVG-20010904/DTD/svg10.dtd">
<svg version="1.0" xmlns="http://www.w3.org/2000/svg"
 width="831.000000pt" height="287.000000pt" viewBox="0 0 831.000000 287.000000"
 preserveAspectRatio="xMidYMid meet">

<g transform="translate(0.000000,287.000000) scale(0.100000,-0.100000)"
fill="#000000" stroke="none">
<path d="M2390 2739 c-377 -45 -642 -272 -728 -624 -27 -110 -21 -286 12 -398
85 -286 285 -478 581 -558 106 -29 354 -32 459 -6 169 43 290 109 402 221 287
287 311 747 55 1069 -168 212 -484 332 -781 296z m225 -401 c63 -16 134 -56
186 -105 211 -198 155 -540 -110 -671 -74 -36 -77 -37 -190 -37 -98 0 -125 4
-174 23 -158 64 -267 220 -267 381 1 289 265 484 555 409z"/>
<path d="M221 2684 c-21 -26 -21 -33 -21 -749 0 -697 1 -724 19 -746 19 -23
23 -24 180 -24 140 0 162 2 178 18 16 16 18 48 23 332 l5 315 255 -326 c145
-186 265 -330 278 -335 32 -12 354 -11 387 1 31 12 50 56 36 86 -5 12 -138
178 -295 369 -157 191 -286 350 -286 353 0 4 118 146 261 317 143 170 262 320
266 333 4 16 -1 33 -14 50 l-20 27 -186 3 c-169 2 -188 1 -204 -16 -10 -9
-121 -152 -248 -316 l-230 -299 -5 303 c-5 284 -6 302 -24 316 -15 11 -57 14
-177 14 l-158 0 -20 -26z"/>
<path d="M3535 2685 c-24 -23 -25 -30 -25 -143 0 -180 -26 -166 323 -172 l285
-5 -320 -525 c-176 -289 -329 -543 -340 -565 -24 -48 -13 -90 27 -105 16 -6
248 -10 599 -10 696 0 626 -19 626 169 0 188 33 171 -337 171 -286 0 -305 1
-298 18 3 9 152 258 330 553 178 296 327 548 331 562 4 20 0 32 -20 51 l-25
26 -566 0 -566 0 -24 -25z"/>
<path d="M5411 2693 c-13 -12 -115 -263 -296 -737 -296 -770 -291 -754 -234
-783 16 -8 74 -13 169 -13 95 0 153 5 169 13 18 9 37 42 71 127 l46 115 284 0
284 0 38 -105 c55 -151 53 -150 242 -150 140 0 156 2 180 21 16 13 26 30 26
47 0 41 -529 1444 -552 1465 -18 15 -44 17 -213 17 -169 0 -195 -2 -214 -17z
m297 -711 c45 -131 82 -241 82 -245 0 -4 -76 -7 -169 -7 l-169 0 81 245 c45
135 84 245 87 245 3 0 42 -107 88 -238z"/>
<path d="M6600 2690 c-20 -20 -20 -33 -20 -754 l0 -735 27 -21 c26 -20 37 -21
180 -18 130 3 155 6 170 21 17 16 18 53 23 468 l5 450 364 -465 c318 -408 368
-466 395 -472 18 -3 101 -4 185 -2 147 3 154 4 172 27 18 22 19 50 19 746 0
716 0 723 -21 749 l-20 26 -158 0 c-120 0 -162 -3 -177 -14 -18 -14 -19 -34
-24 -471 l-5 -457 -350 449 c-192 246 -360 458 -372 471 -21 21 -29 22 -198
22 -162 0 -177 -2 -195 -20z"/>
<path d="M4485 565 c-51 -18 -100 -74 -114 -131 -10 -37 -9 -56 3 -98 50 -170
292 -184 367 -21 72 155 -86 310 -256 250z m134 -79 c33 -18 51 -54 51 -106 0
-77 -86 -124 -163 -89 -32 15 -57 60 -57 104 0 29 8 45 34 71 38 38 85 45 135
20z"/>
<path d="M6173 565 c-57 -24 -82 -110 -45 -155 9 -12 42 -31 71 -43 70 -28 85
-51 52 -78 -28 -23 -63 -19 -94 9 -17 15 -20 15 -38 -8 -27 -36 -24 -46 24
-69 53 -26 101 -27 147 -3 41 20 60 53 60 105 0 56 -12 72 -85 102 -53 23 -65
32 -65 51 0 29 40 42 76 25 33 -15 31 -15 48 18 l15 29 -39 16 c-49 19 -85 20
-127 1z"/>
<path d="M1250 535 c0 -34 1 -35 40 -35 l40 0 0 -145 0 -145 40 0 40 0 0 145
0 145 40 0 c39 0 40 1 40 35 l0 35 -120 0 -120 0 0 -35z"/>
<path d="M1990 390 l0 -180 100 0 100 0 0 35 0 35 -60 0 -60 0 0 40 0 40 60 0
60 0 0 35 0 35 -60 0 -60 0 0 35 0 35 60 0 60 0 0 35 0 35 -100 0 -100 0 0
-180z"/>
<path d="M2811 548 c-5 -13 -36 -92 -70 -176 -34 -84 -61 -154 -61 -157 0 -3
18 -5 41 -5 36 0 41 3 55 35 l14 35 69 0 69 0 12 -35 c11 -33 14 -35 56 -35
l44 0 -21 53 c-12 28 -44 109 -71 180 l-50 127 -39 0 c-32 0 -41 -4 -48 -22z
m72 -147 c9 -27 17 -51 17 -55 0 -3 -18 -6 -40 -6 -22 0 -40 4 -40 8 0 17 32
102 39 102 3 0 14 -22 24 -49z"/>
<path d="M3530 390 l0 -180 45 0 45 0 0 75 0 75 70 0 70 0 0 -75 0 -75 45 0
45 0 0 180 0 180 -45 0 -45 0 0 -70 0 -70 -70 0 -70 0 0 70 0 70 -45 0 -45 0
0 -180z"/>
<path d="M5272 436 c4 -108 8 -139 24 -167 54 -94 221 -91 267 5 13 29 17 64
17 166 l0 130 -39 0 -39 0 -4 -131 c-3 -146 -10 -159 -74 -159 -54 0 -64 25
-64 167 l0 123 -46 0 -47 0 5 -134z"/>
<path d="M6870 390 l0 -180 100 0 100 0 0 35 0 35 -60 0 -60 0 0 40 0 40 60 0
60 0 0 35 0 35 -60 0 -60 0 0 35 0 35 60 0 60 0 0 35 0 35 -100 0 -100 0 0
-180z"/>
</g>
</svg>
